<?xml version="1.0" standalone="no"?><!DOCTYPE svg PUBLIC "-//W3C//DTD SVG 1.1//EN" "http://www.w3.org/Graphics/SVG/1.1/DTD/svg11.dtd"><svg t="1625554853976" class="icon" viewBox="0 0 1024 1024" version="1.1" xmlns="http://www.w3.org/2000/svg" p-id="9155" xmlns:xlink="http://www.w3.org/1999/xlink" width="32" height="32"><defs><style type="text/css"></style></defs><path d="M396.4 100H165.3c-36.5 0-66.2 29.7-66.2 66.2v231.2c0 36.5 29.7 66.2 66.2 66.2h231.2c36.5 0 66.2-29.7 66.2-66.2V166.3c0-36.6-29.8-66.3-66.3-66.3z m26.3 297.4c0 14.5-11.8 26.2-26.2 26.2H165.3c-14.5 0-26.2-11.8-26.2-26.2V166.3c0-14.5 11.8-26.2 26.2-26.2h231.2c14.5 0 26.2 11.8 26.2 26.2v231.1zM858.7 100H627.6c-36.5 0-66.2 29.7-66.2 66.2v231.2c0 36.5 29.7 66.2 66.2 66.2h231.2c36.5 0 66.2-29.7 66.2-66.2V166.3c0-36.6-29.7-66.3-66.3-66.3zM885 397.4c0 14.5-11.8 26.2-26.2 26.2H627.6c-14.5 0-26.2-11.8-26.2-26.2V166.3c0-14.5 11.8-26.2 26.2-26.2h231.2c14.5 0 26.2 11.8 26.2 26.2v231.1zM858.7 562.3H627.6c-36.5 0-66.2 29.7-66.2 66.2v231.2c0 36.5 29.7 66.2 66.2 66.2h231.2c36.5 0 66.2-29.7 66.2-66.2V628.6c0-36.5-29.7-66.3-66.3-66.3zM885 859.7c0 14.5-11.8 26.2-26.2 26.2H627.6c-14.5 0-26.2-11.8-26.2-26.2V628.6c0-14.5 11.8-26.2 26.2-26.2h231.2c14.5 0 26.2 11.8 26.2 26.2v231.1zM396.4 562.3H165.3c-36.5 0-66.2 29.7-66.2 66.2v231.2c0 36.5 29.7 66.2 66.2 66.2h231.2c36.5 0 66.2-29.7 66.2-66.2V628.6c0-36.5-29.8-66.3-66.3-66.3z m26.3 297.4c0 14.5-11.8 26.2-26.2 26.2H165.3c-14.5 0-26.2-11.8-26.2-26.2V628.6c0-14.5 11.8-26.2 26.2-26.2h231.2c14.5 0 26.2 11.8 26.2 26.2v231.1z" p-id="9156" fill="#ffffff"></path></svg>