<?xml version="1.0" standalone="no"?><!DOCTYPE svg PUBLIC "-//W3C//DTD SVG 1.1//EN" "http://www.w3.org/Graphics/SVG/1.1/DTD/svg11.dtd"><svg t="1634364317980" class="icon" viewBox="0 0 1024 1024" version="1.1" xmlns="http://www.w3.org/2000/svg" p-id="5429" xmlns:xlink="http://www.w3.org/1999/xlink" width="200" height="200"><defs><style type="text/css"></style></defs><path d="M511.87 113.99c54.03 0 106.41 10.57 155.67 31.4 47.62 20.14 90.41 49 127.17 85.76 36.76 36.76 65.61 79.55 85.76 127.17 20.84 49.26 31.4 101.64 31.4 155.67s-10.57 106.41-31.4 155.67c-20.14 47.62-48.99 90.41-85.76 127.17-36.76 36.76-79.55 65.61-127.17 85.76-49.26 20.84-101.64 31.4-155.67 31.4s-106.41-10.57-155.67-31.4c-47.62-20.14-90.41-48.99-127.17-85.76-36.76-36.76-65.61-79.55-85.76-127.17-20.84-49.26-31.4-101.64-31.4-155.67s10.57-106.41 31.4-155.67c20.14-47.62 49-90.41 85.76-127.17 36.76-36.76 79.55-65.61 127.17-85.76 49.26-20.84 101.63-31.4 155.67-31.4m0-80c-265.1 0-480 214.9-480 480s214.9 480 480 480 480-214.9 480-480-214.91-480-480-480z" fill="#8a8a8a" p-id="5430"></path><path d="M512.54 381.65c23.99 31.26 42.54 53.47 55.39 66.32 14.08 14.08 39.42 35.35 75.62 63.5-34.32 26.36-58.48 46.51-72.13 60.17-13.31 13.31-32.8 36.62-58.21 69.59-25.63-34.59-45.47-58.96-59.27-72.75-13.43-13.43-37.07-32.61-70.55-57.26 32.63-25.87 55.71-45.54 68.89-58.72 13.44-13.45 33.62-37.19 60.26-70.85m0.9-117.62c-6.76 0-13.54 3-18.09 9.01-26.88 35.46-76.19 99.43-99.65 122.89-23.33 23.33-86.69 72.2-122.27 99.18-12.27 9.3-11.96 27.8 0.61 36.5 36.25 25.09 100.5 70.6 123.33 93.43 23.47 23.47 70.58 89.41 96.42 126.4 4.44 6.36 11.38 9.54 18.34 9.54 6.88 0 13.78-3.11 18.34-9.33 26.48-36.18 74.25-100.19 97.51-123.45 23.44-23.44 88.26-71.78 124.28-98.12 12.3-8.99 12.46-27.25 0.33-36.28-36.7-27.32-104.01-78.31-128.1-102.4-22.47-22.47-67.81-83.59-92.94-118.16-4.45-6.14-11.27-9.21-18.11-9.21z" fill="#8a8a8a" p-id="5431"></path></svg>