<?xml version="1.0" standalone="no"?><!DOCTYPE svg PUBLIC "-//W3C//DTD SVG 1.1//EN" "http://www.w3.org/Graphics/SVG/1.1/DTD/svg11.dtd"><svg class="icon" width="200px" height="200.00px" viewBox="0 0 1024 1024" version="1.1" xmlns="http://www.w3.org/2000/svg"><path fill="#0049dc" d="M832 738.56V320a128 128 0 0 0-128-128H128a128 128 0 0 0-128 128v576a128 128 0 0 0 128 128h576a128 128 0 0 0 128-128v-157.44z m-92.8 128a64 64 0 0 1-64 64H156.16a64 64 0 0 1-64-64V349.44a64 64 0 0 1 64-64h517.76a64 64 0 0 1 64 64v390.4zM1024 704a128 128 0 0 1-128 128h-64v-93.44h36.48a64 64 0 0 0 64-64V156.8a64 64 0 0 0-64-64H349.44a64 64 0 0 0-64 64V192H192V128a128 128 0 0 1 128-128h576a128 128 0 0 1 128 128zM221.44 448m48 0l288 0q48 0 48 48l0 0q0 48-48 48l-288 0q-48 0-48-48l0 0q0-48 48-48ZM221.44 672m48 0l288 0q48 0 48 48l0 0q0 48-48 48l-288 0q-48 0-48-48l0 0q0-48 48-48Z" /></svg>