<?xml version="1.0" standalone="no"?><!DOCTYPE svg PUBLIC "-//W3C//DTD SVG 1.1//EN" "http://www.w3.org/Graphics/SVG/1.1/DTD/svg11.dtd"><svg t="1633850258565" class="icon" viewBox="0 0 1024 1024" version="1.1" xmlns="http://www.w3.org/2000/svg" p-id="11556" xmlns:xlink="http://www.w3.org/1999/xlink" width="200" height="200"><defs><style type="text/css"></style></defs><path d="M921.59977 174.591956L497.663876 598.52785c-48.127988 48.127988-120.31997-24.063994-72.191982-72.191982L849.407788 102.399974H665.599834a51.199987 51.199987 0 0 1 0-102.399974h307.199923a51.199987 51.199987 0 0 1 51.199987 51.199987v307.199923a51.199987 51.199987 0 0 1-102.399974 0V174.591956zM921.59977 742.399814a51.199987 51.199987 0 0 1 102.399974 0v76.723181A204.697549 204.697549 0 0 1 819.071795 1023.999744H204.927949A204.723149 204.723149 0 0 1 0 819.071795V204.927949A204.902349 204.902349 0 0 1 204.876749 0H281.59993a51.199987 51.199987 0 0 1 0 102.399974H204.876749A102.502374 102.502374 0 0 0 102.399974 204.927949v614.143846A102.348774 102.348774 0 0 0 204.927949 921.59977h614.143846A102.297574 102.297574 0 0 0 921.59977 819.122995V742.399814z" fill="#0049dc" p-id="11557"></path></svg>